<svg xmlns="http://www.w3.org/2000/svg" width="15" height="30" viewBox="0 0 15 30"><g><g><path fill="#b8a9a4" d="M.076 10.317h3.11V7.421c0-1.275.033-3.245 1-4.464C5.207 1.666 6.607.788 9.013.788c3.921 0 5.574.536 5.574.536l-.777 4.414s-1.296-.36-2.505-.36c-1.21 0-2.292.415-2.292 1.573V10.317h4.958l-.346 4.31H9.012V29.6H3.185V14.626H.075z"/><path fill="#6b6b6b" d="M.076 10.317h3.11V7.421c0-1.275.033-3.245 1-4.464C5.207 1.666 6.607.788 9.013.788c3.921 0 5.574.536 5.574.536l-.777 4.414s-1.296-.36-2.505-.36c-1.21 0-2.292.415-2.292 1.573V10.317h4.958l-.346 4.31H9.012V29.6H3.185V14.626H.075z"/></g></g></svg>