<svg xmlns="http://www.w3.org/2000/svg" width="107" height="107" viewBox="0 0 107 107"><g><g><path fill="#a59d9a" d="M107 53.497l-4.822 3.661 4.232 4.334-5.311 2.902 3.537 4.92-5.685 2.07 2.76 5.396-5.93 1.192 1.926 5.75-6.042.293 1.053 5.971-6.018-.608.158 6.063-5.861-1.497-.742 6.02-5.573-2.356-1.631 5.84-5.158-3.167-2.487 5.53-4.626-3.908-3.284 5.093-3.996-4.553-3.997 4.553-3.283-5.093-4.627 3.907-2.487-5.529-5.158 3.167-1.63-5.84-5.575 2.355-.742-6.02-5.86 1.497.157-6.063-6.017.609 1.052-5.973-6.041-.293 1.925-5.749-5.93-1.192 2.76-5.396-5.684-2.07 3.537-4.92-5.31-2.901 4.231-4.334L0 53.497l4.822-3.66L.59 45.501 5.9 42.6l-3.537-4.92 5.685-2.07-2.76-5.396 5.93-1.193-1.925-5.749 6.041-.292-1.052-5.973 6.018.608-.158-6.062 5.86 1.497.743-6.019 5.573 2.355 1.631-5.84 5.158 3.167 2.487-5.529 4.626 3.907 3.284-5.093L53.5 4.55l3.996-4.553L60.78 5.09l4.627-3.906 2.486 5.528 5.16-3.166 1.63 5.84 5.573-2.356.742 6.02 5.861-1.497-.158 6.063 6.018-.608-1.053 5.972 6.042.293-1.926 5.749 5.93 1.192-2.76 5.396 5.685 2.07-3.538 4.919 5.31 2.902-4.23 4.334z"/></g></g></svg>