<svg xmlns="http://www.w3.org/2000/svg" width="102" height="50" viewBox="0 0 102 50">
  <defs>
    <style>
      .cls-1 {
        fill: #ffa687;
        fill-rule: evenodd;
      }
    </style>
  </defs>
  <path class="cls-1" d="M239.563,270.008a24.11,24.11,0,0,0-17.838,7.924,17.244,17.244,0,0,0-17.7-.258,24.093,24.093,0,0,0-17.6-7.666c-13.493,0-24.431,11.192-24.431,25s10.938,25,24.431,25,24.432-11.192,24.432-25a25.309,25.309,0,0,0-3.513-12.918,12.182,12.182,0,0,1,11.149.26,25.311,25.311,0,0,0-3.366,12.658c0,13.805,10.939,25,24.432,25s24.431-11.192,24.431-25S253.055,270.008,239.563,270.008Z" transform="translate(-162 -270)"/>
</svg>
