<svg xmlns="http://www.w3.org/2000/svg" width="130" height="10" viewBox="0 0 130 10"><g><g><path fill="#bebebe" d="M65 0a5 5 0 1 1 0 10 5 5 0 0 1 0-10z"/><path fill="#867a76" d="M65 0a5 5 0 1 1 0 10 5 5 0 0 1 0-10z"/></g><g><path fill="#bebebe" d="M95 0a5 5 0 1 1 0 10 5 5 0 0 1 0-10z"/><path fill="#867a76" d="M95 0a5 5 0 1 1 0 10 5 5 0 0 1 0-10z"/></g><g><path fill="#bebebe" d="M125 0a5 5 0 1 1 0 10 5 5 0 0 1 0-10z"/><path fill="#867a76" d="M125 0a5 5 0 1 1 0 10 5 5 0 0 1 0-10z"/></g><g><path fill="#ffa687" d="M35 0a5 5 0 1 1 0 10 5 5 0 0 1 0-10z"/><path fill="#fd926d" d="M35 0a5 5 0 1 1 0 10 5 5 0 0 1 0-10z"/></g><g><path fill="#bebebe" d="M5 0a5 5 0 1 1 0 10A5 5 0 0 1 5 0z"/><path fill="#867a76" d="M5 0a5 5 0 1 1 0 10A5 5 0 0 1 5 0z"/></g></g></svg>