<svg xmlns="http://www.w3.org/2000/svg" width="102" height="50" viewBox="0 0 102 50"><g><g><path fill="#ffa687" d="M77.563.008c-7.04 0-13.38 3.05-17.838 7.924-2.661-1.627-5.759-2.575-9.066-2.575-3.128 0-6.07.848-8.633 2.317C37.58 2.95 31.343.008 24.429.008 10.936.008 0 11.2 0 25.005s10.937 24.997 24.43 24.997S48.861 38.81 48.861 25.005c0-4.728-1.284-9.148-3.513-12.918a12.21 12.21 0 0 1 5.311-1.224c2.108 0 4.093.54 5.838 1.484a25.31 25.31 0 0 0-3.366 12.658c0 13.805 10.939 24.997 24.432 24.997 13.492 0 24.43-11.192 24.43-24.997S91.056.008 77.564.008z"/></g></g></svg>