<svg xmlns="http://www.w3.org/2000/svg" width="38" height="38" viewBox="0 0 38 38"><g><g><path fill="#fff" d="M15.452 28.146L6.759 36.83a3.94 3.94 0 0 1-5.567 0l-.049-.05a3.93 3.93 0 0 1 0-5.56l8.693-8.684C6.55 16.786 7.36 9.316 12.268 4.413c5.88-5.874 15.446-5.874 21.326 0 5.88 5.874 5.88 15.43 0 21.304-4.908 4.903-12.385 5.712-18.142 2.43zm14.632-5.935c3.944-3.94 3.944-10.351 0-14.291-3.944-3.94-10.362-3.94-14.306 0-3.944 3.94-3.944 10.35 0 14.29 3.944 3.94 10.362 3.94 14.306 0z"/></g></g></svg>