<svg xmlns="http://www.w3.org/2000/svg" width="143" height="143" viewBox="0 0 143 143"><defs><clipPath id="ldpqa"><path fill="#fff" d="M142 71.5c0 2.597-3.905 4.952-4.186 7.474-.287 2.576 2.998 5.735 2.434 8.216-.574 2.52-4.905 3.948-5.748 6.355-.851 2.435 1.643 6.25.533 8.552-1.12 2.319-5.66 2.741-7.025 4.907-1.37 2.176.212 6.452-1.387 8.454-1.603 2.008-6.124 1.412-7.938 3.226s-1.218 6.335-3.225 7.938c-2.003 1.598-6.28.017-8.455 1.387-2.166 1.363-2.588 5.905-4.907 7.023-2.302 1.11-6.116-1.384-8.552-.531-2.406.841-3.833 5.174-6.354 5.747-2.481.563-5.64-2.721-8.215-2.434-2.523.28-4.878 4.186-7.475 4.186-2.598 0-4.953-3.905-7.476-4.186-2.575-.287-5.734 2.997-8.215 2.434-2.521-.574-3.948-4.906-6.355-5.748-2.435-.852-6.25 1.642-8.551.532-2.32-1.12-2.742-5.66-4.908-7.024-2.176-1.37-6.452.211-8.454-1.388-2.008-1.602-1.412-6.123-3.226-7.937s-6.335-1.219-7.937-3.226c-1.6-2.002-.018-6.279-1.388-8.455-1.364-2.165-5.905-2.587-7.024-4.907-1.11-2.3 1.384-6.115.532-8.55-.842-2.407-5.173-3.834-5.746-6.355-.564-2.48 2.72-5.64 2.433-8.216C4.904 76.452 1 74.097 1 71.5c0-2.597 3.905-4.952 4.186-7.475.287-2.575-2.997-5.734-2.433-8.216.573-2.52 4.904-3.948 5.746-6.355.853-2.435-1.641-6.25-.531-8.55 1.119-2.32 5.66-2.743 7.023-4.908 1.37-2.176-.21-6.452 1.389-8.455 1.602-2.007 6.123-1.411 7.937-3.225s1.219-6.335 3.226-7.938c2.002-1.598 6.278-.018 8.454-1.388 2.166-1.363 2.588-5.904 4.908-7.023 2.3-1.11 6.115 1.384 8.55.532 2.407-.842 3.834-5.174 6.355-5.747 2.48-.563 5.64 2.72 8.215 2.434C66.547 4.904 68.902.999 71.5.999c2.597 0 4.952 3.905 7.475 4.186 2.575.286 5.734-2.997 8.215-2.434 2.522.573 3.948 4.905 6.355 5.747 2.435.852 6.25-1.642 8.552-.532 2.319 1.12 2.741 5.66 4.907 7.024 2.176 1.37 6.452-.21 8.455 1.388 2.007 1.603 1.411 6.123 3.225 7.938 1.814 1.814 6.334 1.218 7.937 3.225 1.6 2.002.018 6.279 1.389 8.455 1.363 2.165 5.904 2.588 7.023 4.907 1.11 2.302-1.384 6.116-.532 8.551.842 2.407 5.173 3.834 5.747 6.354.564 2.482-2.72 5.64-2.434 8.216.281 2.522 4.186 4.878 4.186 7.475z"/></clipPath></defs><g><g><path fill="#525252" d="M142 71.5c0 2.597-3.905 4.952-4.186 7.474-.287 2.576 2.998 5.735 2.434 8.216-.574 2.52-4.905 3.948-5.748 6.355-.851 2.435 1.643 6.25.533 8.552-1.12 2.319-5.66 2.741-7.025 4.907-1.37 2.176.212 6.452-1.387 8.454-1.603 2.008-6.124 1.412-7.938 3.226s-1.218 6.335-3.225 7.938c-2.003 1.598-6.28.017-8.455 1.387-2.166 1.363-2.588 5.905-4.907 7.023-2.302 1.11-6.116-1.384-8.552-.531-2.406.841-3.833 5.174-6.354 5.747-2.481.563-5.64-2.721-8.215-2.434-2.523.28-4.878 4.186-7.475 4.186-2.598 0-4.953-3.905-7.476-4.186-2.575-.287-5.734 2.997-8.215 2.434-2.521-.574-3.948-4.906-6.355-5.748-2.435-.852-6.25 1.642-8.551.532-2.32-1.12-2.742-5.66-4.908-7.024-2.176-1.37-6.452.211-8.454-1.388-2.008-1.602-1.412-6.123-3.226-7.937s-6.335-1.219-7.937-3.226c-1.6-2.002-.018-6.279-1.388-8.455-1.364-2.165-5.905-2.587-7.024-4.907-1.11-2.3 1.384-6.115.532-8.55-.842-2.407-5.173-3.834-5.746-6.355-.564-2.48 2.72-5.64 2.433-8.216C4.904 76.452 1 74.097 1 71.5c0-2.597 3.905-4.952 4.186-7.475.287-2.575-2.997-5.734-2.433-8.216.573-2.52 4.904-3.948 5.746-6.355.853-2.435-1.641-6.25-.531-8.55 1.119-2.32 5.66-2.743 7.023-4.908 1.37-2.176-.21-6.452 1.389-8.455 1.602-2.007 6.123-1.411 7.937-3.225s1.219-6.335 3.226-7.938c2.002-1.598 6.278-.018 8.454-1.388 2.166-1.363 2.588-5.904 4.908-7.023 2.3-1.11 6.115 1.384 8.55.532 2.407-.842 3.834-5.174 6.355-5.747 2.48-.563 5.64 2.72 8.215 2.434C66.547 4.904 68.902.999 71.5.999c2.597 0 4.952 3.905 7.475 4.186 2.575.286 5.734-2.997 8.215-2.434 2.522.573 3.948 4.905 6.355 5.747 2.435.852 6.25-1.642 8.552-.532 2.319 1.12 2.741 5.66 4.907 7.024 2.176 1.37 6.452-.21 8.455 1.388 2.007 1.603 1.411 6.123 3.225 7.938 1.814 1.814 6.334 1.218 7.937 3.225 1.6 2.002.018 6.279 1.389 8.455 1.363 2.165 5.904 2.588 7.023 4.907 1.11 2.302-1.384 6.116-.532 8.551.842 2.407 5.173 3.834 5.747 6.354.564 2.482-2.72 5.64-2.434 8.216.281 2.522 4.186 4.878 4.186 7.475z"/><path fill="none" stroke="#fff" stroke-linecap="round" stroke-linejoin="round" stroke-miterlimit="20" stroke-opacity=".59" stroke-width="2" d="M142 71.5c0 2.597-3.905 4.952-4.186 7.474-.287 2.576 2.998 5.735 2.434 8.216-.574 2.52-4.905 3.948-5.748 6.355-.851 2.435 1.643 6.25.533 8.552-1.12 2.319-5.66 2.741-7.025 4.907-1.37 2.176.212 6.452-1.387 8.454-1.603 2.008-6.124 1.412-7.938 3.226s-1.218 6.335-3.225 7.938c-2.003 1.598-6.28.017-8.455 1.387-2.166 1.363-2.588 5.905-4.907 7.023-2.302 1.11-6.116-1.384-8.552-.531-2.406.841-3.833 5.174-6.354 5.747-2.481.563-5.64-2.721-8.215-2.434-2.523.28-4.878 4.186-7.475 4.186-2.598 0-4.953-3.905-7.476-4.186-2.575-.287-5.734 2.997-8.215 2.434-2.521-.574-3.948-4.906-6.355-5.748-2.435-.852-6.25 1.642-8.551.532-2.32-1.12-2.742-5.66-4.908-7.024-2.176-1.37-6.452.211-8.454-1.388-2.008-1.602-1.412-6.123-3.226-7.937s-6.335-1.219-7.937-3.226c-1.6-2.002-.018-6.279-1.388-8.455-1.364-2.165-5.905-2.587-7.024-4.907-1.11-2.3 1.384-6.115.532-8.55-.842-2.407-5.173-3.834-5.746-6.355-.564-2.48 2.72-5.64 2.433-8.216C4.904 76.452 1 74.097 1 71.5c0-2.597 3.905-4.952 4.186-7.475.287-2.575-2.997-5.734-2.433-8.216.573-2.52 4.904-3.948 5.746-6.355.853-2.435-1.641-6.25-.531-8.55 1.119-2.32 5.66-2.743 7.023-4.908 1.37-2.176-.21-6.452 1.389-8.455 1.602-2.007 6.123-1.411 7.937-3.225s1.219-6.335 3.226-7.938c2.002-1.598 6.278-.018 8.454-1.388 2.166-1.363 2.588-5.904 4.908-7.023 2.3-1.11 6.115 1.384 8.55.532 2.407-.842 3.834-5.174 6.355-5.747 2.48-.563 5.64 2.72 8.215 2.434C66.547 4.904 68.902.999 71.5.999c2.597 0 4.952 3.905 7.475 4.186 2.575.286 5.734-2.997 8.215-2.434 2.522.573 3.948 4.905 6.355 5.747 2.435.852 6.25-1.642 8.552-.532 2.319 1.12 2.741 5.66 4.907 7.024 2.176 1.37 6.452-.21 8.455 1.388 2.007 1.603 1.411 6.123 3.225 7.938 1.814 1.814 6.334 1.218 7.937 3.225 1.6 2.002.018 6.279 1.389 8.455 1.363 2.165 5.904 2.588 7.023 4.907 1.11 2.302-1.384 6.116-.532 8.551.842 2.407 5.173 3.834 5.747 6.354.564 2.482-2.72 5.64-2.434 8.216.281 2.522 4.186 4.878 4.186 7.475z" clip-path="url(&quot;#ldpqa&quot;)"/></g></g></svg>