<svg xmlns="http://www.w3.org/2000/svg" width="33" height="28" viewBox="0 0 33 28"><g><g><path fill="#b8a9a4" d="M32.791 3.871a13.5 13.5 0 0 1-3.862 1.054 6.72 6.72 0 0 0 2.957-3.704 13.52 13.52 0 0 1-4.27 1.625 6.732 6.732 0 0 0-4.91-2.114c-3.714 0-6.725 2.997-6.725 6.695 0 .525.06 1.035.174 1.525A19.122 19.122 0 0 1 2.293 1.957a6.685 6.685 0 0 0 2.081 8.939 6.727 6.727 0 0 1-3.046-.838v.084c0 3.244 2.318 5.95 5.395 6.566a6.786 6.786 0 0 1-3.038.114 6.729 6.729 0 0 0 6.283 4.65 13.53 13.53 0 0 1-8.353 2.866c-.542 0-1.078-.032-1.604-.094a19.095 19.095 0 0 0 10.309 3.008c12.37 0 19.135-10.202 19.135-19.05 0-.29-.007-.578-.02-.865a13.63 13.63 0 0 0 3.356-3.466z"/><path fill="#6b6b6b" d="M32.791 3.871a13.5 13.5 0 0 1-3.862 1.054 6.72 6.72 0 0 0 2.957-3.704 13.52 13.52 0 0 1-4.27 1.625 6.732 6.732 0 0 0-4.91-2.114c-3.714 0-6.725 2.997-6.725 6.695 0 .525.06 1.035.174 1.525A19.122 19.122 0 0 1 2.293 1.957a6.685 6.685 0 0 0 2.081 8.939 6.727 6.727 0 0 1-3.046-.838v.084c0 3.244 2.318 5.95 5.395 6.566a6.786 6.786 0 0 1-3.038.114 6.729 6.729 0 0 0 6.283 4.65 13.53 13.53 0 0 1-8.353 2.866c-.542 0-1.078-.032-1.604-.094a19.095 19.095 0 0 0 10.309 3.008c12.37 0 19.135-10.202 19.135-19.05 0-.29-.007-.578-.02-.865a13.63 13.63 0 0 0 3.356-3.466z"/></g></g></svg>