<svg xmlns="http://www.w3.org/2000/svg" width="35" height="35" viewBox="0 0 35 35"><g><g><path fill="#b8a9a4" d="M17.61.6C8.229.6.624 8.122.624 17.4c0 6.88 4.182 12.789 10.167 15.387-.048-1.173-.009-2.581.295-3.857.327-1.364 2.186-9.155 2.186-9.155s-.543-1.072-.543-2.658c0-2.49 1.459-4.349 3.276-4.349 1.545 0 2.291 1.148 2.291 2.522 0 1.537-.99 3.835-1.5 5.962-.425 1.783.904 3.236 2.682 3.236 3.217 0 5.385-4.088 5.385-8.932 0-3.682-2.508-6.438-7.068-6.438-5.152 0-8.362 3.8-8.362 8.046 0 1.463.436 2.496 1.12 3.295.314.366.358.514.244.936-.082.31-.27 1.053-.346 1.348-.113.426-.462.578-.85.42-2.374-.958-3.48-3.528-3.48-6.418 0-4.772 4.07-10.494 12.14-10.494 6.485 0 10.754 4.642 10.754 9.624 0 6.59-3.705 11.514-9.165 11.514-1.834 0-3.56-.981-4.15-2.095 0 0-.986 3.871-1.195 4.618-.36 1.296-1.065 2.59-1.71 3.6 1.528.446 3.142.688 4.815.688 9.379 0 16.984-7.522 16.984-16.8S26.99.6 17.61.6z"/><path fill="#6b6b6b" d="M17.61.6C8.229.6.624 8.122.624 17.4c0 6.88 4.182 12.789 10.167 15.387-.048-1.173-.009-2.581.295-3.857.327-1.364 2.186-9.155 2.186-9.155s-.543-1.072-.543-2.658c0-2.49 1.459-4.349 3.276-4.349 1.545 0 2.291 1.148 2.291 2.522 0 1.537-.99 3.835-1.5 5.962-.425 1.783.904 3.236 2.682 3.236 3.217 0 5.385-4.088 5.385-8.932 0-3.682-2.508-6.438-7.068-6.438-5.152 0-8.362 3.8-8.362 8.046 0 1.463.436 2.496 1.12 3.295.314.366.358.514.244.936-.082.31-.27 1.053-.346 1.348-.113.426-.462.578-.85.42-2.374-.958-3.48-3.528-3.48-6.418 0-4.772 4.07-10.494 12.14-10.494 6.485 0 10.754 4.642 10.754 9.624 0 6.59-3.705 11.514-9.165 11.514-1.834 0-3.56-.981-4.15-2.095 0 0-.986 3.871-1.195 4.618-.36 1.296-1.065 2.59-1.71 3.6 1.528.446 3.142.688 4.815.688 9.379 0 16.984-7.522 16.984-16.8S26.99.6 17.61.6z"/></g></g></svg>